<svg width="888" height="653" viewBox="0 0 888 653" fill="none" xmlns="http://www.w3.org/2000/svg">
<g clip-path="url(#clip0_2_2)">
<path d="M443.65 0C363 0 297.42 65.59 297.42 146.22V302.78C297.42 383.4 363 449 443.65 449C524.3 449 589.87 383.4 589.87 302.78V146.22C589.87 65.59 524.27 0 443.65 0ZM450 333.29V312.09C492.76 313.53 533.401 331.054 563.8 361.16C560.601 367.689 556.875 373.946 552.66 379.87C525.775 351.618 488.966 334.916 450 333.29ZM334.66 379.87C330.444 373.946 326.719 367.689 323.52 361.16C353.919 331.054 394.56 313.53 437.32 312.09V333.29C398.354 334.916 361.545 351.618 334.66 379.87ZM345.66 302.78V258.16C348.59 260.04 351.61 261.8 354.74 263.4C370.392 271.467 387.751 275.664 405.36 275.64C416.198 275.637 426.978 274.053 437.36 270.94V299.45C405.934 300.414 375.291 309.492 348.41 325.8C346.579 318.263 345.649 310.536 345.64 302.78H345.66ZM393.9 47.43L382.42 27.56C392.488 22.3393 403.186 18.4339 414.25 15.94L418.25 38.55C409.81 40.5357 401.636 43.5165 393.9 47.43ZM443.65 48.21C469.631 48.2418 494.54 58.5769 512.911 76.9486C531.283 95.3203 541.618 120.229 541.65 146.21V177.1C519.257 177.815 497.605 185.289 479.54 198.54C486.465 177.851 487.154 155.582 481.519 134.505C475.884 113.428 464.176 94.4731 447.85 80L443.65 76.27L439.45 80C423.12 94.47 411.406 113.424 405.768 134.501C400.13 155.579 400.815 177.849 407.74 198.54C389.676 185.294 368.028 177.824 345.64 177.11V146.22C345.669 120.235 356.004 95.3228 374.379 76.9486C392.753 58.5745 417.665 48.2391 443.65 48.21ZM469 38.55L473 15.94C484.061 18.4372 494.758 22.3389 504.83 27.55L493.38 47.43C485.634 43.5134 477.45 40.5325 469 38.55ZM342 189.64C357.609 189.617 372.996 193.338 386.87 200.49C407.315 210.977 423.47 228.257 432.56 249.36L320.54 192C327.585 190.431 334.782 189.639 342 189.64ZM450 226.24V100.37C464.664 118.064 472.689 140.324 472.689 163.305C472.689 186.286 464.664 208.546 450 226.24ZM437.35 226.24C422.686 208.546 414.661 186.286 414.661 163.305C414.661 140.324 422.686 118.064 437.35 100.37V226.24ZM500.41 200.49C520.846 189.977 544.325 186.973 566.75 192L454.69 249.36C463.777 228.255 479.933 210.974 500.38 200.49H500.41ZM554.33 177.39V152.55H577.26V181.7C569.779 179.462 562.083 178.018 554.3 177.39H554.33ZM554.14 139.9C553.653 131.249 552.143 122.686 549.64 114.39L571.23 106.52C574.602 117.351 576.575 128.569 577.1 139.9H554.14ZM545.31 102.51C541.869 94.5504 537.506 87.0222 532.31 80.08L549.87 65.35C556.76 74.354 562.472 84.2001 566.87 94.65L545.31 102.51ZM342.04 102.51L320.46 94.66C324.864 84.21 330.576 74.3613 337.46 65.35L355 80.09C349.804 87.0285 345.44 94.5534 342 102.51H342.04ZM337.71 114.39C335.208 122.689 333.698 131.256 333.21 139.91H310.23C310.748 128.583 312.714 117.368 316.08 106.54L337.71 114.39ZM333 152.56V177.39C325.23 178.019 317.548 179.464 310.08 181.7V152.56H333ZM426.85 260.61C419.792 262.189 412.582 262.987 405.35 262.99C389.744 263.011 374.361 259.291 360.49 252.14C340.043 241.66 323.887 224.383 314.8 203.28L426.85 260.61ZM538.92 325.8C512.048 309.497 481.416 300.42 450 299.45V270.94C460.381 274.054 471.161 275.638 482 275.64C499.612 275.666 516.974 271.468 532.63 263.4C535.76 261.8 538.78 260.03 541.72 258.16V302.78C541.699 310.537 540.76 318.264 538.92 325.8ZM526.81 252.14C512.937 259.295 497.55 263.02 481.94 263C474.712 262.996 467.505 262.201 460.45 260.63L572.5 203.29C563.409 224.388 547.254 241.661 526.81 252.14ZM541.73 55.66L524.15 70.42C518.211 64.1175 511.56 58.5266 504.33 53.76L515.79 33.89C525.32 40.024 534.036 47.3387 541.73 55.66ZM460.58 13.75L456.58 36.35C452.286 35.8372 447.965 35.5768 443.64 35.57C439.295 35.5806 434.955 35.841 430.64 36.35L426.64 13.75C437.885 12.27 449.275 12.27 460.52 13.75H460.58ZM371.49 33.9L383 53.77C375.768 58.534 369.116 64.1251 363.18 70.43L345.55 55.67C353.246 47.3511 361.962 40.0366 371.49 33.9ZM310.07 221.63C316.213 231.844 323.955 241.007 333 248.77V302.77C332.993 313.049 334.424 323.278 337.25 333.16C330.579 337.905 324.231 343.09 318.25 348.68C312.858 333.975 310.105 318.433 310.12 302.77L310.07 221.63ZM450 379.8C476.57 381.374 501.523 393.086 519.71 412.52C513.725 416.692 507.411 420.371 500.83 423.52C487.002 410.367 469.035 402.425 450 401.05V379.8ZM437.35 401.05C418.321 402.425 400.358 410.356 386.52 423.49C379.939 420.341 373.625 416.662 367.64 412.49C385.828 393.058 410.78 381.346 437.35 379.77V401.05ZM399.61 428.85C412.126 418.863 427.663 413.424 443.675 413.424C459.687 413.424 475.224 418.863 487.74 428.85C459.215 438.857 428.134 438.857 399.61 428.85ZM529.79 404.78C518.836 392.856 505.526 383.336 490.701 376.824C475.877 370.312 459.862 366.949 443.67 366.949C427.478 366.949 411.463 370.312 396.639 376.824C381.814 383.336 368.504 392.856 357.55 404.78C352.18 400.251 347.171 395.309 342.57 390C355.46 376.062 371.093 364.94 388.487 357.334C405.881 349.728 424.66 345.801 443.645 345.801C462.629 345.801 481.409 349.728 498.803 357.334C516.197 364.94 531.83 376.062 544.72 390C540.127 395.31 535.125 400.252 529.76 404.78H529.79ZM569.13 348.69C563.13 343.101 556.766 337.916 550.08 333.17C552.905 323.287 554.335 313.058 554.33 302.78V248.78C563.372 241.014 571.113 231.852 577.26 221.64V302.79C577.26 318.451 574.497 333.989 569.1 348.69H569.13Z" fill="#7D806A"/>
<path d="M512.8 150.57C515.086 150.57 517.321 149.892 519.221 148.622C521.122 147.353 522.604 145.548 523.479 143.436C524.354 141.324 524.584 139.001 524.139 136.758C523.693 134.516 522.593 132.456 520.978 130.839C519.362 129.222 517.303 128.12 515.061 127.673C512.82 127.226 510.496 127.454 508.383 128.327C506.271 129.2 504.465 130.681 503.193 132.58C501.922 134.48 501.242 136.714 501.24 139C501.239 140.519 501.537 142.023 502.117 143.427C502.697 144.831 503.549 146.106 504.622 147.181C505.696 148.255 506.971 149.107 508.374 149.689C509.777 150.271 511.281 150.57 512.8 150.57Z" fill="#7D806A"/>
<path d="M362.93 139C362.93 141.286 363.608 143.521 364.878 145.422C366.148 147.323 367.954 148.805 370.066 149.68C372.178 150.555 374.503 150.784 376.745 150.338C378.988 149.892 381.047 148.791 382.664 147.174C384.281 145.557 385.382 143.498 385.828 141.255C386.274 139.013 386.045 136.688 385.17 134.576C384.295 132.464 382.813 130.658 380.912 129.388C379.011 128.118 376.776 127.44 374.49 127.44C371.424 127.44 368.484 128.658 366.316 130.826C364.148 132.994 362.93 135.934 362.93 139Z" fill="#7D806A"/>
<path d="M43.41 528.6H29.14C21.64 528.6 15.9133 530.473 11.96 534.22C8.00667 537.967 6.02 544.13 6 552.71H0V535.63C0 524.91 5.69333 519.55 17.08 519.55H111.54V528.6H69.54V652.2H43.41V528.6Z" fill="#7D806A"/>
<path d="M131.44 545.68C131.44 538.853 130.5 533.797 128.62 530.51C126.74 527.223 122.99 525.58 117.37 525.58H115.37V519.58H204C215.387 519.58 221.08 524.94 221.08 535.66V552.74H215.08C215.08 544.44 212.97 538.343 208.75 534.45C204.53 530.557 198.267 528.617 189.96 528.63H157.56V578.87H209.82V587.87H157.56V643.14H191.93C199.57 643.14 205.933 641.433 211.02 638.02C216.107 634.607 220.327 628.677 223.68 620.23L229.11 622.23L223.28 638.11C221.54 642.93 219.463 646.48 217.05 648.76C214.637 651.04 210.887 652.187 205.8 652.2H131.44V545.68Z" fill="#7D806A"/>
<path d="M336.23 647.67C329.397 644.13 323.837 637.197 319.55 626.87L314.93 615.62H261.47L245 652.2H234.54L293.82 519.55H302.87L347.87 626.87C352.963 639.33 359.93 646.03 368.77 646.97V651.97C365.61 652.716 362.366 653.052 359.12 652.97C351.172 653.093 343.315 651.274 336.23 647.67ZM265.69 606.57H311.11L289 554.12L265.69 606.57Z" fill="#7D806A"/>
<path d="M382.05 545.68C382.05 538.853 381.11 533.797 379.23 530.51C377.35 527.223 373.607 525.58 368 525.58H366V519.58H390.12C394.94 519.58 398.623 520.383 401.17 521.99C403.717 523.597 405.527 526.243 406.6 529.93C407.667 533.623 408.2 538.883 408.2 545.71V643.18H477.54V652.23H382.05V545.68Z" fill="#7D806A"/>
<path d="M580.81 647.67C573.983 644.13 568.423 637.197 564.13 626.87L559.51 615.62H506.05L489.57 652.2H479.12L538.41 519.55H547.41L592.41 626.87C597.497 639.33 604.463 646.03 613.31 646.97V651.97C610.15 652.717 606.906 653.053 603.66 652.97C595.726 653.087 587.883 651.267 580.81 647.67ZM510.27 606.57H555.69L533.58 554.12L510.27 606.57Z" fill="#7D806A"/>
<path d="M637.28 552.71V652.2H627.28V543.67C627.28 538.037 625.907 533.617 623.16 530.41C620.413 527.203 615.747 525.593 609.16 525.58H608.16V519.58H622.23C629.73 519.58 635.86 520.553 640.62 522.5C645.365 524.419 649.509 527.575 652.62 531.64L721.69 612V519.55H731.69V652.8H722.5L637.28 552.71Z" fill="#7D806A"/>
<path d="M765.7 545.68C765.7 538.853 764.763 533.797 762.89 530.51C761.017 527.223 757.263 525.58 751.63 525.58H749.63V519.58H804.3C831.36 519.58 851.96 525.31 866.1 536.77C880.24 548.23 887.307 564.34 887.3 585.1C887.3 598.36 884.32 610.05 878.36 620.17C872.4 630.29 863.557 638.163 851.83 643.79C840.097 649.41 825.997 652.223 809.53 652.23H765.7V545.68ZM808.91 644.16C817.748 644.317 826.438 641.883 833.91 637.16C841.243 632.493 846.94 625.727 851 616.86C855.06 607.993 857.103 597.66 857.13 585.86C857.13 574.207 855.087 563.993 851 555.22C847.322 546.926 841.36 539.851 833.81 534.82C826.277 529.944 817.462 527.424 808.49 527.58H806.9C803.332 527.51 799.766 527.781 796.25 528.39L791.83 528.99V642.75L796.25 643.55C799.781 644.002 803.34 644.206 806.9 644.16H808.91Z" fill="#7D806A"/>
</g>
<defs>
<clipPath id="clip0_2_2">
<rect width="887.29" height="653" fill="white"/>
</clipPath>
</defs>
</svg>
