<?xml version="1.0" standalone="no"?>
<!DOCTYPE svg PUBLIC "-//W3C//DTD SVG 20010904//EN"
 "http://www.w3.org/TR/2001/REC-SVG-20010904/DTD/svg10.dtd">
<svg version="1.0" xmlns="http://www.w3.org/2000/svg"
 width="888.000000pt" height="888.000000pt" viewBox="0 0 888.000000 888.000000"
 preserveAspectRatio="xMidYMid meet">
<metadata>
Created by potrace 1.14, written by Peter Selinger 2001-2017
</metadata>
<g transform="translate(0.000000,888.000000) scale(0.100000,-0.100000)"
fill="#000000" stroke="none">
<path d="M4195 7679 c-135 -23 -337 -88 -405 -130 -8 -5 -26 -14 -39 -19 -41
-18 -183 -114 -246 -167 -81 -67 -157 -145 -213 -218 -25 -33 -49 -62 -52 -65
-34 -31 -171 -306 -195 -392 -2 -5 -3 -9 -5 -10 -1 -2 -3 -10 -5 -18 -2 -8
-11 -46 -20 -85 -9 -38 -19 -81 -21 -95 -2 -14 -7 -50 -12 -80 -9 -59 -7
-1841 2 -1900 2 -19 7 -51 10 -70 23 -153 122 -416 196 -520 11 -16 20 -31 20
-34 0 -3 7 -14 14 -23 8 -10 33 -43 56 -73 85 -115 224 -244 360 -332 106 -70
291 -156 370 -173 8 -2 15 -4 15 -5 0 -3 116 -29 196 -45 19 -4 106 -8 194
-10 155 -2 290 12 393 44 18 5 36 11 40 12 45 11 158 53 201 73 57 27 210 114
221 126 3 3 21 17 40 30 125 87 290 270 382 425 39 64 109 205 103 205 -3 0 4
20 15 44 22 52 67 228 77 306 10 70 10 1866 1 1940 -10 71 -16 102 -35 175 -8
33 -16 65 -18 70 -2 10 -4 16 -38 105 -47 125 -135 277 -226 390 -41 52 -222
230 -233 230 -7 0 -36 21 -63 48 -8 6 -16 12 -19 12 -3 0 -25 14 -50 31 -53
35 -232 121 -291 138 -52 16 -59 18 -67 20 -4 1 -22 7 -40 12 -18 6 -44 12
-58 15 -14 2 -36 7 -50 10 -98 25 -371 27 -505 3z m340 -110 c73 -3 75 -6 54
-99 -9 -44 -17 -83 -18 -85 -1 -3 -1 -13 -1 -24 0 -17 -10 -18 -132 -17 l-132
1 -7 35 c-13 59 -22 123 -23 155 -1 30 -1 30 59 33 33 1 67 4 75 5 8 1 29 2
45 0 17 -1 53 -3 80 -4z m-375 -124 c6 -44 14 -92 17 -106 4 -23 1 -27 -27
-33 -18 -3 -73 -22 -122 -42 -49 -20 -91 -34 -92 -32 -15 19 -108 189 -105
192 19 17 156 74 219 92 56 15 86 20 91 15 4 -3 12 -42 19 -86z m671 66 c103
-32 160 -55 194 -77 l23 -15 -55 -92 c-31 -51 -57 -94 -59 -96 -2 -2 -23 5
-46 16 -24 11 -77 31 -118 44 -41 13 -76 24 -78 24 -1 1 3 26 8 56 6 30 13 68
15 84 9 51 16 85 20 85 1 0 45 -13 96 -29z m-1061 -251 c0 -5 5 -10 11 -10 5
0 8 -4 4 -9 -3 -5 -1 -12 5 -16 6 -3 17 -19 25 -34 14 -28 13 -29 -33 -62 -25
-18 -69 -55 -97 -81 -27 -26 -52 -48 -55 -48 -3 0 -23 16 -45 36 -22 19 -59
49 -82 67 -23 18 -43 35 -43 38 0 12 107 110 180 165 l73 55 29 -45 c15 -25
28 -50 28 -56z m1480 35 c74 -57 160 -138 159 -150 0 -9 -103 -100 -152 -134
-17 -12 -21 -12 -31 0 -18 23 -139 125 -163 137 -21 12 -20 13 35 111 65 112
55 110 152 36z m-650 -90 c14 -4 34 -8 45 -10 39 -8 51 -11 105 -30 116 -38
260 -125 360 -217 56 -51 147 -170 187 -244 43 -82 86 -200 98 -269 4 -22 9
-51 12 -65 2 -14 6 -118 7 -232 2 -234 11 -208 -74 -213 -19 -1 -62 -8 -95
-15 -33 -8 -66 -15 -74 -16 -36 -7 -178 -59 -193 -72 -9 -7 -23 -14 -31 -16
-8 -1 -41 -19 -72 -39 -75 -49 -83 -49 -65 -2 5 14 12 38 15 53 3 15 7 38 10
52 7 32 18 128 18 160 -1 84 -6 171 -14 210 -5 25 -11 56 -13 70 -19 108 -102
295 -182 406 -53 75 -188 214 -207 214 -23 0 -165 -150 -221 -235 -70 -105
-128 -217 -114 -221 2 0 -2 -7 -8 -15 -7 -8 -25 -63 -40 -124 -26 -99 -28
-126 -28 -270 0 -131 4 -176 22 -248 12 -49 22 -91 22 -93 0 -4 -80 46 -90 56
-9 10 -164 79 -210 93 -49 16 -143 39 -175 44 -48 6 -102 12 -120 12 -19 1
-20 8 -19 174 1 218 9 297 39 401 77 264 252 478 498 606 42 22 77 38 77 34 0
-4 6 -2 13 4 16 13 147 50 207 58 25 3 46 7 48 9 5 5 238 -4 262 -10z m-1184
-193 c17 -15 54 -46 82 -70 l51 -43 -43 -67 c-24 -37 -53 -86 -65 -110 -26
-51 -7 -53 -203 20 -16 6 -28 15 -28 20 0 9 18 48 41 88 5 8 12 22 16 30 11
24 74 123 91 143 19 22 21 22 58 -11z m2127 -26 c20 -30 37 -59 37 -64 0 -6 3
-12 8 -14 13 -6 74 -138 69 -151 -4 -11 -195 -83 -202 -75 -2 2 -17 28 -33 58
-16 30 -44 79 -63 109 l-33 53 24 20 c14 11 36 29 50 41 37 32 94 76 100 77 3
0 22 -25 43 -54z m-1169 -915 c0 -336 -3 -614 -7 -617 -7 -7 -83 107 -119 181
-26 52 -66 157 -74 197 -2 13 -7 38 -10 57 -3 18 -8 43 -10 55 -6 29 -6 226 0
256 3 14 11 50 17 80 20 98 106 299 145 337 8 8 21 28 30 44 8 16 18 28 22 25
4 -2 7 -279 6 -615z m173 562 c22 -32 54 -85 70 -118 32 -63 86 -205 78 -205
-2 0 0 -11 5 -24 27 -71 31 -315 6 -422 -11 -50 -48 -163 -68 -204 -28 -61
-121 -210 -130 -210 -5 0 -8 279 -8 620 0 341 2 620 4 620 2 0 21 -26 43 -57z
m-1249 -48 c45 -15 80 -31 77 -35 -2 -3 -7 -22 -10 -41 -9 -47 -13 -64 -15
-64 -1 0 -3 -11 -4 -25 -2 -14 -6 -46 -10 -71 l-7 -46 -112 1 -112 1 1 25 c2
54 16 155 28 205 27 107 26 105 55 90 15 -7 64 -26 109 -40z m2429 -5 c16 -55
32 -146 40 -222 l5 -56 -115 0 -115 0 -6 62 c-4 33 -14 90 -22 126 -8 36 -11
66 -7 68 126 50 181 70 193 69 8 -1 20 -22 27 -47z m-2402 -529 l0 -124 -25
-3 c-56 -8 -156 -27 -176 -35 -21 -8 -22 -6 -22 139 l0 147 111 0 112 -1 0
-123z m2440 117 c6 -5 9 -140 6 -255 l-1 -31 -44 13 c-43 13 -154 31 -168 27
-11 -3 -11 -3 -13 128 -1 63 2 117 6 120 11 8 207 6 214 -2z m-2230 -372 c33
-4 68 -9 77 -12 9 -3 26 -7 37 -9 43 -10 57 -14 115 -34 160 -56 339 -191 447
-338 37 -50 109 -173 109 -186 0 -6 -89 32 -100 43 -3 3 -84 45 -180 94 -96
49 -242 123 -325 166 -82 42 -228 117 -322 165 -95 48 -173 91 -173 96 0 5 15
10 33 10 39 1 99 8 103 12 4 4 117 0 179 -7z m2035 0 c14 -2 37 -5 53 -5 43
-1 32 -19 -30 -50 -32 -15 -141 -71 -243 -123 -102 -52 -315 -162 -475 -243
-159 -81 -296 -152 -303 -158 -26 -20 -22 2 10 62 46 85 110 171 177 235 64
63 170 146 188 146 6 0 13 4 15 8 5 11 128 68 190 87 131 41 320 59 418 41z
m-2142 -272 c147 -75 353 -181 457 -234 105 -53 232 -119 283 -145 51 -26 91
-49 88 -52 -17 -17 -281 -24 -361 -10 -71 13 -78 15 -160 42 -237 80 -448 264
-564 493 -12 23 -19 42 -16 42 4 0 126 -61 273 -136z m2285 119 c-12 -32 -94
-168 -104 -171 -5 -2 -9 -8 -9 -14 0 -5 -33 -43 -72 -84 -98 -101 -234 -191
-363 -239 -34 -13 -126 -40 -175 -51 -47 -11 -285 -11 -333 0 l-48 11 143 74
c79 40 274 140 433 222 160 81 342 175 405 208 63 33 118 60 122 60 4 1 4 -7
1 -16z m-2454 -362 l69 -70 5 -353 c3 -280 8 -368 21 -423 16 -70 16 -70 -6
-85 -12 -8 -54 -41 -91 -72 -38 -32 -73 -56 -77 -53 -4 2 -11 19 -15 37 -4 18
-9 38 -11 43 -1 6 -5 19 -8 30 -3 11 -10 38 -16 60 -19 73 -21 116 -25 605
l-5 484 45 -66 c24 -36 75 -98 114 -137z m2515 -223 c-2 -390 -6 -534 -19
-603 -20 -105 -56 -235 -65 -235 -3 0 -18 12 -35 26 -16 15 -58 49 -93 76 -47
38 -61 55 -57 68 3 10 8 28 10 39 3 12 7 31 10 42 14 64 18 163 19 435 l1 301
70 74 c39 41 88 100 110 132 22 31 42 57 45 57 3 0 4 -186 4 -412z m-2224 7
c110 -55 243 -97 360 -113 61 -8 224 -7 285 1 53 7 64 9 133 25 23 5 43 7 45
3 2 -5 1 -220 -2 -262 -1 -11 -12 -15 -38 -15 -39 0 -136 -10 -185 -19 -16 -3
-38 -7 -50 -9 -74 -13 -206 -49 -290 -80 -107 -39 -298 -130 -310 -149 -10
-16 -25 29 -33 99 -7 66 -12 503 -6 547 3 25 5 26 20 14 9 -8 41 -27 71 -42z
m1865 -232 c-2 -153 -6 -289 -8 -303 -3 -14 -5 -32 -6 -40 -4 -38 -18 -45 -55
-25 -20 11 -36 23 -36 27 0 5 -5 8 -10 8 -6 0 -43 15 -83 34 -79 37 -208 85
-247 93 -13 2 -30 9 -37 15 -7 6 -13 8 -13 5 0 -3 -24 1 -52 8 -29 8 -66 16
-83 19 -16 3 -39 8 -51 10 -22 4 -161 18 -204 20 l-25 1 0 140 c0 119 2 140
15 138 8 -1 44 -8 80 -16 75 -16 110 -19 240 -19 95 0 119 2 219 21 89 18 311
106 326 131 3 5 12 10 20 10 11 0 13 -49 10 -277z m-1044 -281 c1 -32 1 -139
0 -167 -1 -17 -7 -21 -38 -20 -21 0 -42 -1 -47 -4 -5 -2 -25 -5 -45 -6 -20 -1
-49 -5 -66 -9 -16 -3 -39 -8 -50 -10 -191 -37 -429 -145 -590 -268 -46 -35
-166 -142 -173 -154 -7 -13 -13 -9 -34 18 -14 18 -26 38 -27 43 -1 6 -8 17
-15 25 -6 8 -20 31 -31 52 l-18 36 29 29 c86 84 226 185 357 257 58 32 217
105 242 110 6 2 30 9 55 16 61 18 58 17 125 34 65 16 103 22 180 32 28 4 51 7
52 8 1 0 22 2 47 3 44 2 46 1 47 -25z m304 12 c17 -3 44 -7 60 -10 41 -5 62
-10 115 -24 25 -7 50 -13 55 -14 6 -1 35 -10 65 -20 215 -71 462 -214 609
-352 19 -19 39 -34 43 -34 25 0 -24 -111 -82 -186 -16 -22 -16 -22 -66 28 -46
47 -201 167 -253 196 -13 8 -40 23 -60 34 -20 11 -40 23 -46 26 -5 4 -13 7
-16 7 -5 0 -37 15 -102 47 -77 38 -297 90 -437 102 -19 2 -41 4 -47 5 -10 1
-13 28 -13 99 0 54 3 102 7 105 6 7 108 1 168 -9z m-136 -329 c319 -20 626
-159 864 -392 20 -20 37 -41 37 -46 0 -12 -129 -137 -140 -137 -4 0 -33 25
-65 55 -155 146 -365 252 -593 299 -67 14 -337 15 -397 2 -16 -3 -41 -9 -55
-12 -14 -3 -32 -7 -40 -9 -9 -2 -50 -15 -93 -29 -150 -50 -287 -132 -403 -240
-40 -36 -76 -66 -81 -66 -11 0 -143 129 -143 140 0 9 103 106 148 140 19 14
39 30 45 35 32 28 122 82 212 126 119 58 226 94 345 115 14 3 32 7 40 9 8 3
56 7 105 11 50 3 92 7 93 9 2 2 9 2 15 0 7 -2 54 -6 106 -10z m-165 -438 c1
-55 -2 -101 -5 -103 -4 -2 -24 -6 -45 -10 -161 -24 -311 -90 -417 -183 -42
-38 -49 -37 -140 17 -95 56 -95 55 -45 102 168 157 441 279 617 276 l35 -1 0
-98z m262 88 c166 -36 327 -110 442 -203 73 -59 112 -95 112 -104 0 -9 -98
-73 -146 -96 -32 -15 -34 -15 -76 19 -138 111 -289 173 -460 188 -5 1 -8 48
-8 106 l0 105 58 -5 c33 -3 67 -7 78 -10z m-86 -329 c30 -5 62 -12 70 -16 8
-4 19 -8 23 -8 41 0 236 -107 221 -121 -12 -11 -155 -48 -214 -56 -25 -3 -58
-9 -75 -11 -122 -22 -421 10 -548 58 l-27 11 31 23 c43 32 156 87 204 100 112
30 201 35 315 20z"/>
<path d="M3691 6408 c-64 -31 -81 -112 -36 -166 50 -59 121 -62 173 -7 39 42
44 97 11 139 -42 53 -88 64 -148 34z"/>
<path d="M5078 6412 c-62 -27 -84 -125 -40 -176 20 -22 72 -46 93 -42 57 10
105 49 111 91 15 94 -77 165 -164 127z"/>
<path d="M109 2497 c-89 -23 -111 -67 -107 -214 l3 -108 28 -3 c24 -3 27 0 28
25 2 92 44 163 114 194 37 16 166 27 245 20 13 -1 15 -76 15 -612 -1 -541 1
-611 15 -617 12 -6 127 -7 225 -3 20 1 20 6 20 612 0 336 2 614 5 617 3 4 97
7 210 7 l204 0 1 37 c1 21 -1 41 -4 46 -8 10 -961 9 -1002 -1z"/>
<path d="M1160 2496 c-12 -12 -13 -46 -2 -47 41 -4 72 -13 96 -27 57 -34 58
-41 59 -669 1 -509 3 -573 17 -574 48 -3 767 1 780 4 66 17 92 51 144 191 28
77 33 102 24 108 -28 17 -45 6 -73 -47 -31 -61 -89 -117 -145 -143 -48 -22
-479 -31 -481 -10 -1 7 -2 131 -3 275 l-1 263 245 1 c135 1 253 1 263 0 14 -2
17 6 17 43 0 30 -4 46 -12 46 -7 1 -125 2 -263 3 l-249 2 -1 240 c-1 132 2
245 6 250 7 10 350 12 399 2 103 -21 166 -99 169 -209 1 -24 5 -28 31 -28 l30
0 0 115 c0 74 -5 123 -12 138 -17 29 -48 57 -78 70 -33 13 -947 16 -960 3z"/>
<path d="M2944 2501 c-5 -3 -26 -42 -46 -86 -87 -190 -108 -237 -108 -240 0
-2 -13 -33 -30 -69 -16 -36 -43 -96 -60 -132 -16 -36 -30 -67 -30 -69 0 -3
-21 -50 -90 -200 -34 -73 -52 -117 -55 -125 -1 -5 -16 -39 -71 -157 -19 -39
-34 -74 -34 -77 0 -3 -16 -40 -36 -82 -19 -42 -33 -78 -31 -81 5 -4 55 -7 85
-4 6 0 25 29 41 64 47 101 90 196 113 248 12 28 27 49 37 50 9 1 129 2 267 3
l251 1 12 -30 c38 -93 95 -196 131 -234 63 -66 182 -111 295 -111 83 0 105 8
105 35 0 17 -9 25 -39 35 -82 27 -129 88 -201 260 -24 58 -51 123 -61 145 -10
22 -47 112 -84 200 -36 88 -70 169 -75 180 -5 11 -39 92 -75 180 -129 313
-121 297 -166 300 -20 2 -40 0 -45 -4z m-5 -459 c24 -59 52 -125 61 -147 28
-63 110 -257 110 -259 0 -5 -439 0 -444 5 -4 3 5 28 18 55 13 27 56 121 95
210 39 89 78 174 86 190 8 16 15 35 15 42 0 32 19 2 59 -96z"/>
<path d="M3663 2494 c-11 -29 2 -49 35 -51 44 -4 87 -30 104 -62 10 -21 14
-148 16 -613 2 -324 6 -588 10 -589 4 0 218 -1 477 -2 l469 -1 1 35 c2 62 13
59 -239 59 -127 -1 -281 -1 -342 0 l-111 0 0 503 c0 536 -3 609 -32 660 -33
60 -64 69 -232 72 -115 1 -152 -1 -156 -11z"/>
<path d="M5335 2396 c-27 -61 -61 -138 -76 -171 -15 -33 -67 -148 -114 -255
-48 -107 -117 -260 -152 -340 -120 -265 -201 -450 -200 -451 1 0 24 -1 52 -2
l49 -2 51 111 c27 60 65 143 83 184 l33 75 257 -1 c141 -1 262 -2 269 -3 6 0
15 -11 19 -23 20 -65 86 -188 122 -228 39 -44 118 -92 178 -106 16 -4 72 -8
126 -10 l96 -2 4 29 c3 16 1 29 -4 29 -35 0 -93 36 -133 82 -37 44 -55 78
-107 208 -17 41 -41 99 -54 128 -13 29 -24 55 -24 57 0 3 -9 24 -19 48 -11 23
-38 87 -61 142 -23 55 -47 114 -55 130 -7 17 -29 71 -50 120 -20 50 -42 104
-50 120 -15 33 -38 87 -40 95 0 3 -11 27 -23 54 -12 27 -22 54 -22 62 0 19
-16 26 -63 28 l-42 3 -50 -111z m70 -401 c32 -77 78 -187 102 -244 24 -57 43
-106 43 -110 0 -4 -99 -7 -220 -7 -121 0 -220 4 -220 8 0 7 114 268 193 441
17 37 34 64 37 60 4 -5 33 -71 65 -148z"/>
<path d="M6080 2478 c0 -16 5 -29 10 -29 6 -1 13 -2 18 -4 4 -1 25 -5 47 -9
49 -10 91 -47 106 -94 8 -25 12 -204 13 -600 l1 -564 48 -2 c44 -1 47 0 48 24
0 14 1 238 1 498 l1 473 25 -28 c13 -15 40 -48 60 -72 21 -24 45 -53 56 -65
10 -11 50 -59 90 -106 39 -47 78 -92 86 -100 9 -8 25 -28 37 -43 12 -15 44
-54 71 -85 28 -31 79 -91 113 -132 35 -41 68 -80 74 -86 5 -6 62 -73 125 -148
l115 -136 45 2 45 3 0 665 0 665 -40 1 c-22 0 -44 -1 -50 -3 -6 -2 -10 -163
-9 -458 0 -250 -2 -455 -4 -455 -5 0 -21 17 -72 80 -25 30 -52 61 -60 70 -8 9
-33 37 -55 64 -22 27 -49 58 -60 70 -11 12 -40 46 -65 76 -25 29 -50 58 -55
64 -6 6 -64 74 -130 151 -66 77 -125 146 -132 153 -7 7 -28 32 -48 57 -80 97
-162 127 -347 129 l-108 1 0 -27z"/>
<path d="M7499 2498 c-1 -5 -1 -15 -1 -23 0 -28 2 -30 31 -31 44 -2 83 -26
105 -64 20 -34 21 -49 21 -615 0 -319 3 -582 7 -585 9 -7 460 -4 549 4 91 8
124 13 165 27 17 5 40 11 52 14 40 7 168 77 220 121 151 123 226 299 224 522
-1 46 -4 92 -7 102 -3 10 -7 31 -9 46 -7 55 -53 154 -104 224 -52 72 -200 176
-287 202 -58 17 -55 16 -120 32 -33 8 -89 18 -125 22 -89 10 -720 11 -721 2z
m677 -83 c44 -6 131 -41 168 -67 98 -67 181 -200 209 -334 16 -70 16 -273 2
-344 -11 -55 -53 -161 -82 -205 -63 -98 -170 -172 -284 -196 -51 -11 -253 -8
-265 4 -4 4 -6 173 -4 327 0 8 0 152 0 320 0 168 0 312 1 320 0 8 -1 38 -1 65
-3 108 -6 103 53 112 52 9 143 8 203 -2z"/>
</g>
</svg>
